<?xml version="1.0" encoding="iso-8859-1"?>
<!DOCTYPE svg PUBLIC "-//W3C//DTD SVG 1.1//EN" "http://www.w3.org/Graphics/SVG/1.1/DTD/svg11.dtd">
<svg 
 version="1.1" xmlns="http://www.w3.org/2000/svg" xmlns:xlink="http://www.w3.org/1999/xlink" x="0px" y="0px" width="512px"
	 height="512px" viewBox="0 0 512 512" enable-background="new 0 0 512 512" xml:space="preserve"
><g id="5151e0c8492e5103c096af88a524673c"><g></g><g fill="#ffffff"><path display="inline" d="M509.154,178.084c-13.954-1.556-27.827-2.341-41.51-2.341c-37.499,0-73.683,5.911-107.199,17.82
		c-20.052-51.286-55.482-97.292-102.227-134.65c-47.172,37.689-82.802,84.189-102.754,136.024
		c-34.596-12.856-72.159-19.199-111.11-19.194c-13.691,0-27.555,0.785-41.51,2.341c-8.012,71.701,4.437,140.684,38.352,197.677
		c0,0,48.914,77.326,116.753,77.326c24.915,0,52.389-10.438,80.924-38.969c6.66-6.664,17.529-20.343,17.13-19.798
		c4.782,6.528,10.461,13.134,17.122,19.798c28.534,28.53,56.008,38.969,80.923,38.969c67.84,0,116.754-77.326,116.754-77.326
		C504.718,318.768,517.166,249.785,509.154,178.084z M258.219,85.012c38.552,33.725,66.978,73.175,83.654,115.896
		c-10.443,4.559-20.605,9.713-30.386,15.533c0,0-32.618,20.65-55.483,53.705c-22.874-33.054-55.491-53.705-55.491-53.705
		c-8.592-5.113-17.457-9.74-26.566-13.882C190.523,159.208,219.167,119.167,258.219,85.012z M256.004,348.655
		c-1.814,7.889-4.972,15.769-9.5,23.608c-0.635,1.093-1.325,2.187-2.014,3.279c-3.23,5.158-7.014,10.294-11.414,15.411
		c-2.586,3.008-5.372,6.011-8.366,9.001c-21.966,21.966-44.431,33.103-66.76,33.103c-54.457,0-97.282-64.119-99.723-67.84
		C29.765,317.239,17.117,259.217,21.3,196.543c7.748-0.513,15.46-0.771,23.055-0.771h0.009c37.018,0,72.449,6.201,104.504,18.137
		c6.351,2.363,12.548,4.967,18.609,7.771c7.74,3.58,15.252,7.495,22.483,11.786c2.804,1.837,35.785,23.912,54.711,56.026
		c5.081,8.615,9.128,17.951,11.333,27.818c0.599,2.709,1.088,5.453,1.388,8.238C258.236,333.249,257.765,340.956,256.004,348.655z
		 M453.781,365.209c-2.595,3.951-45.375,67.849-99.732,67.849c-22.329,0-44.794-11.137-66.76-33.103
		c-2.822-2.817-5.436-5.644-7.903-8.479c-4.582-5.285-8.547-10.602-11.877-15.933c-0.644-1.012,0.391-3.152,1.507-3.229
		c13.973-30.631,9.735-58.958-1.688-82.82c18.963-32.187,52.053-54.284,54.692-56.017c8.456-5.018,17.294-9.522,26.421-13.564
		c6.079-2.69,12.313-5.158,18.655-7.408c31.021-10.997,65.045-16.731,100.548-16.731c7.595,0,15.307,0.258,23.056,0.771
		C494.883,259.217,482.234,317.23,453.781,365.209z"></path></g></g></svg>